<?xml version="1.0" encoding="utf-8"?>
<!-- Generator: Adobe Illustrator 24.0.3, SVG Export Plug-In . SVG Version: 6.00 Build 0)  -->
<svg version="1.1" id="Layer_1" xmlns="http://www.w3.org/2000/svg" xmlns:xlink="http://www.w3.org/1999/xlink" x="0px" y="0px"
	 viewBox="0 0 78 78" style="enable-background:new 0 0 78 78;" xml:space="preserve">
<style type="text/css">
	.st0{fill:#15880C;}
	.st1{fill:#C19E13;}
	.st2{fill:#FFFFFF;}
</style>
<g id="Group_18189" transform="translate(-286.383 -73.093)">
	<path id="Path_22487" class="st0" d="M360,128.7V96c0-2.4-1.3-4.7-3.4-5.9l-27.8-16c-2.1-1.2-4.7-1.2-6.8,0l-27.8,16
		c-2.1,1.2-3.4,3.5-3.4,5.9v32.8c0,2,1.1,3.8,2.8,4.8l29,16.8c1.7,1,3.9,1,5.6,0l29-16.7C358.9,132.6,360,130.7,360,128.7z"/>
	<g id="Group_18186" transform="translate(286.383 78.465)">
		<path id="Path_22488" class="st1" d="M4.4,17.5v23.2l22.9,13.2l23.5-40.7L27.9,0L7.8,11.6C5.7,12.8,4.4,15.1,4.4,17.5z"/>
		<g id="Group_18185" transform="translate(0 0)">
			
				<ellipse id="Ellipse_15761" transform="matrix(0.5 -0.866 0.866 0.5 -9.5324 50.6028)" class="st2" cx="39.1" cy="33.6" rx="23.5" ry="16.5"/>
			<path id="Path_22489" d="M24.7,25.3c-4.9,8.4-5.4,17.7-2.1,23.8c16.3-4.5,26-21.1,21.9-37.5C37.5,11.6,29.7,16.8,24.7,25.3z"/>
			<path id="Path_22490" class="st1" d="M50.8,13.2c-1.6-0.9-3.4-1.5-5.3-1.6c4.8,16.4-4.6,33.7-21.1,38.5c-0.3,0.1-0.7,0.2-1,0.3
				c1,1.4,2.3,2.6,3.8,3.5c7.9,4.6,19.6-0.9,26.1-12.1S58.7,17.7,50.8,13.2z"/>
			<path id="Path_22491" class="st2" d="M50.8,13.2c-0.5-0.3-1-0.5-1.5-0.7C49.8,12.7,50.3,12.9,50.8,13.2L27.9,0l-1.8,1l-0.8,0.5
				l17.7,10.2c-3,0.4-5.8,1.4-8.3,3.1L18.5,5.4L17,6.3l16.3,9.4c-0.3,0.2-0.6,0.4-0.8,0.6L16.1,6.8l-7.6,4.4L27,21.9
				c-0.8,1-1.5,2.1-2.1,3.2L5.4,13.9c-0.6,1-1,2.2-1,3.4l18.9,10.9c-3.2,7.1-3.5,14.4-1.2,19.7L4.4,37.7v3l22.9,13.2
				c1.9,1.1,4,1.6,6.2,1.6c7,0,14.9-5.2,19.8-13.7C59.8,30.6,58.7,17.7,50.8,13.2z M49.4,39.5c-4.6,7.9-11.2,11.4-15.9,11.4
				c-1.4,0-2.7-0.3-3.9-1c-5.6-3.2-6-13.5-0.9-22.4c4.6-7.9,11.2-11.4,15.9-11.4v-3.5l0,0v3.5c1.4,0,2.7,0.3,3.9,1
				C54.1,20.4,54.5,30.6,49.4,39.5z"/>
		</g>
	</g>
</g>
</svg>
