<svg version="1.1" id="Layer_1" xmlns="http://www.w3.org/2000/svg" x="0" y="0" viewBox="0 0 32 32" width="32" height="32" xml:space="preserve"><style>.st2{fill:#ff7063}.st3{fill:#fff}</style><path id="Path_22441" d="M32 27c0 2.8-2.2 5-5 5H5c-2.8 0-5-2.2-5-5V6.5L6.5 0H27c2.8 0 5 2.2 5 5v22z" fill="#e24c3f"/><path id="Path_22442" d="M0 10V6.5h3.5L0 10z" opacity=".2" fill="#5d5d5d"/><path id="Path_22443" class="st2" d="M0 6.5h4.3c1.2 0 2.2-1 2.2-2.2V0L0 6.5z"/><path id="Path_22444" class="st2" d="M5.4 21.5V11.1h5.2c.4 0 .9.1 1.3.2s.7.4.9.7c.3.3.5.6.6 1 .1.4.2.9.2 1.3 0 .5-.1.9-.2 1.4-.1.4-.3.8-.6 1.1-.3.3-.6.6-.9.7-.4.2-.9.3-1.3.3H7.1v3.8l-1.7-.1zm1.7-8.9v3.5H10c.5 0 1-.1 1.5-.4.3-.4.5-.9.5-1.4 0-.5-.1-1-.5-1.3-.4-.3-.9-.4-1.4-.4h-3z"/><path id="Path_22445" class="st2" d="M19.7 11.3l1.6-.5v9.4c0 .2 0 .3.1.4 0 .1.1.3.1.4.1.1.1.3.2.4H20c-.1-.1-.1-.3-.2-.4 0-.2-.1-.3-.1-.5-.3.3-.6.6-1 .8-.4.2-.8.3-1.2.3-.5 0-.9-.1-1.4-.3-.4-.2-.7-.4-1-.7-.3-.3-.5-.7-.6-1.1-.1-.4-.2-.9-.2-1.3v-.7c-.1-1.1.3-2.1 1-2.9.8-.7 1.9-1 2.9-1 .5 0 1 .1 1.4.3l.1-2.6zm0 4.3c-.2-.1-.5-.2-.8-.3-.3 0-.5-.1-.8-.1-.3 0-.7 0-1 .2-.3.1-.5.3-.7.5-.2.2-.3.5-.4.7V18c0 .3 0 .5.1.8 0 .2.1.5.2.7.1.2.3.4.5.5.2.1.5.2.8.2.2 0 .4 0 .6-.1l.6-.3c.4-.2.7-.5 1-.8l-.1-3.4z"/><path id="Path_22446" class="st2" d="M23.5 13.1c0-.3 0-.6.1-.8.1-.3.2-.5.4-.7.2-.2.4-.4.6-.5.3-.1.6-.2.9-.2.2 0 .4 0 .6.1.2 0 .4.1.6.1v1.3H26c-.3 0-.5.1-.7.3-.2.2-.2.5-.2.7v.6h1.5l-.4 1.4h-1v6.2h-1.6v-6.2h-.9V14h.9l-.1-.9z"/><path id="Path_22447" class="st3" d="M5.4 21.1V10.7h5.2c.4 0 .9.1 1.3.2s.7.4.9.7c.3.3.5.6.6 1 .1.4.2.9.2 1.3 0 .5-.1.9-.2 1.4-.1.4-.3.8-.6 1.1-.3.3-.6.6-.9.7-.4.2-.9.3-1.3.3H7.1v3.8l-1.7-.1zm1.7-8.9v3.5H10c.5 0 1-.1 1.5-.4.3-.4.5-.9.5-1.4 0-.5-.1-1-.5-1.3-.4-.3-.9-.4-1.4-.4h-3z"/><path id="Path_22448" class="st3" d="M19.7 10.9l1.6-.5v9.4c0 .2 0 .3.1.4 0 .1.1.3.1.4.1.1.1.3.2.4H20c-.1-.1-.1-.3-.2-.4 0-.2-.1-.3-.1-.5-.3.3-.6.6-1 .8-.4.2-.8.3-1.2.3-.5 0-.9-.1-1.4-.3-.4-.2-.7-.4-1-.7-.3-.3-.5-.7-.6-1.1-.1-.4-.2-.9-.2-1.3v-.7c-.1-1.1.3-2.1 1-2.9.8-.7 1.9-1 2.9-1 .5 0 1 .1 1.4.3l.1-2.6zm0 4.3c-.2-.1-.5-.2-.8-.3-.3 0-.5-.1-.8-.1-.3 0-.7 0-1 .2-.3.1-.5.3-.7.5-.2.2-.3.5-.4.7v1.5c0 .3 0 .5.1.8 0 .2.1.5.2.7.1.2.3.4.5.5.2.1.5.2.8.2.2 0 .4 0 .6-.1l.6-.3c.4-.2.7-.5 1-.8l-.1-3.5z"/><path id="Path_22449" class="st3" d="M23.5 12.7c0-.3 0-.6.1-.8.1-.3.2-.5.4-.7.2-.2.4-.4.6-.5.3-.1.6-.2.9-.2.2 0 .4 0 .6.1.2 0 .4.1.6.1V12H26c-.3 0-.5.1-.7.3-.2.2-.2.5-.2.7v.6h1.5l-.4 1.4h-1v6.2h-1.6V15h-.9v-1.4h.9l-.1-.9z"/></svg>