<?xml version="1.0" encoding="utf-8"?>
<!-- Generator: Adobe Illustrator 24.0.3, SVG Export Plug-In . SVG Version: 6.00 Build 0)  -->
<svg version="1.1" id="Layer_1" xmlns="http://www.w3.org/2000/svg" xmlns:xlink="http://www.w3.org/1999/xlink" x="0px" y="0px"
	 viewBox="0 0 128 128" style="enable-background:new 0 0 128 128;" xml:space="preserve">
<path d="M63.2,61.7c8.5,0,15.8-3,21.8-9c6-6,9-13.3,9-21.8C94,22.4,91,15,85,9c-6-6-13.3-9-21.8-9c-8.5,0-15.8,3-21.8,9
	s-9,13.3-9,21.8c0,8.5,3,15.8,9,21.8C47.4,58.6,54.7,61.7,63.2,61.7z M46.7,14.3c4.6-4.6,10-6.8,16.5-6.8c6.5,0,11.9,2.2,16.5,6.8
	c4.6,4.6,6.8,10,6.8,16.5c0,6.5-2.2,11.9-6.8,16.5c-4.6,4.6-10,6.8-16.5,6.8c-6.5,0-11.9-2.2-16.5-6.8c-4.6-4.6-6.8-10-6.8-16.5
	C39.9,24.3,42.1,18.9,46.7,14.3z"/>
<path d="M60.4,120.5H33.2c-4.7,0-8.4-1.3-11.1-3.9c-2.7-2.6-4-6-4-10.6c0-2.4,0.1-4.8,0.2-7c0.2-2.2,0.5-4.7,0.9-7.3
	c0.5-2.6,1-5,1.7-7.2c0.7-2.1,1.6-4.2,2.7-6.2c1.1-1.9,2.3-3.5,3.7-4.9c1.3-1.2,2.9-2.2,4.8-3c1.8-0.7,3.8-1.1,5.9-1.1
	c0.3,0.1,0.7,0.4,1.5,0.9c1.5,1,3.3,2.2,5.3,3.4c2.2,1.4,5.1,2.7,8.5,3.8c3.5,1.1,7,1.7,10.6,1.7s7.1-0.6,10.6-1.7
	c3.4-1.1,6.3-2.4,8.5-3.8c2-1.3,3.7-2.4,5.3-3.4c0.8-0.5,1.2-0.8,1.5-0.9c2.2,0.1,4.1,0.4,5.9,1.1c1.5,0.6,2.8,1.3,3.9,2.2
	c1.2,3.6,9.1,1,8-2.6c-0.6-0.7-1.2-1.4-1.9-2.1c-2-1.9-4.4-3.4-7.2-4.5c-2.8-1.1-5.9-1.7-9.2-1.7c-1.3,0-2.6,0.5-5,2.1
	c-1.5,1-3.3,2.1-5.2,3.4c-1.7,1.1-3.9,2.1-6.8,3c-2.7,0.9-5.5,1.3-8.3,1.3c-2.7,0-5.5-0.4-8.3-1.3c-2.8-0.9-5.1-1.9-6.7-3
	c-1.9-1.2-3.7-2.4-5.2-3.4c-2.4-1.6-3.7-2.1-5-2.1c-3.3,0-6.4,0.6-9.2,1.7c-2.8,1.1-5.3,2.6-7.2,4.5c-1.9,1.8-3.6,4-5,6.6
	c-1.4,2.4-2.5,5-3.3,7.6c-0.8,2.5-1.5,5.2-2,8.1c-0.5,2.9-0.9,5.6-1,8.1c-0.2,2.4-0.3,5-0.3,7.6c0,6.7,2.1,12.1,6.3,16.1
	c4.1,3.9,9.6,5.9,16.3,5.9h27.2C64.9,128,64.9,120.5,60.4,120.5z"/>
<path d="M114.4,91c-1.5-3.3-4.8-5.4-8.4-5.4H95.3c0,0,0,0,0,0c-3.8,0-7.2,2.3-8.5,5.8c-0.2,0.5-0.4,1.1-0.6,1.7H63.7
	c-0.9,0-1.8,0.4-2.5,1l-5.9,6c-1.3,1.3-1.3,3.5,0,4.8l6,6.1c0.6,0.7,1.5,1,2.4,1h11.1c1.9,0,3.4-1.5,3.4-3.4s-1.5-3.4-3.4-3.4h-9.7
	l-2.6-2.7l2.5-2.6h23.5c1.6,0,2.9-1.1,3.3-2.6c0.3-1.1,0.6-2.2,1.1-3.5c0.3-0.9,1.2-1.4,2.2-1.4c0,0,0,0,0,0H106
	c1,0,1.8,0.5,2.2,1.4c0.9,2.1,2,5.2,2,8.7c0,3.5-1.1,6.8-2,8.9c-0.4,0.9-1.2,1.4-2.1,1.4c0,0,0,0,0,0H95.2c-0.9,0-1.8-0.6-2.2-1.5
	c-0.4-1-0.7-2.1-1.1-3.4c-0.4-1.8-2.3-3-4.1-2.5c-1.8,0.4-3,2.3-2.5,4.1c0.4,1.7,0.9,3.1,1.4,4.4c1.4,3.5,4.8,5.7,8.5,5.7H106
	c0,0,0,0,0,0c3.6,0,6.9-2.2,8.4-5.5c1.2-2.7,2.6-6.9,2.6-11.6C117,97.9,115.6,93.7,114.4,91z"/>
<circle cx="103.1" cy="102.6" r="3.4"/>
</svg>
