<?xml version="1.0" encoding="utf-8"?>
<!-- Generator: Adobe Illustrator 24.0.3, SVG Export Plug-In . SVG Version: 6.00 Build 0)  -->
<svg version="1.1" id="Layer_1" xmlns="http://www.w3.org/2000/svg" xmlns:xlink="http://www.w3.org/1999/xlink" x="0px" y="0px"
	 viewBox="0 0 128 128" style="enable-background:new 0 0 128 128;" xml:space="preserve">
<path id="Path_22457" d="M114.5,33.7c-2.6,1.3-3.8,4.5-2.5,7.1c3.5,7.2,5.3,15.2,5.3,23.2c0,29.5-23.9,53.3-53.3,53.3
	S10.7,93.5,10.7,64c0-29.5,23.9-53.3,53.3-53.3c0,0,0,0,0,0c12-0.1,23.7,4,33.1,11.5c2.2,1.9,5.6,1.6,7.5-0.6s1.6-5.6-0.6-7.5
	c-0.1-0.1-0.2-0.1-0.3-0.2C76-8.1,35.8-3.4,13.8,24.3s-17.3,68,10.4,89.9s68,17.3,89.9-10.4c9-11.3,13.8-25.3,13.8-39.8
	c0-9.6-2.1-19.2-6.3-27.8C120.4,33.5,117.2,32.4,114.5,33.7z"/>
<path id="Path_22458" d="M64,21.4c-2.9,0-5.3,2.4-5.3,5.3V64c0,2.9,2.4,5.3,5.3,5.3h26.7c2.9,0,5.3-2.4,5.3-5.3
	c0-2.9-2.4-5.3-5.3-5.3H69.4v-32C69.4,23.8,67,21.4,64,21.4C64,21.4,64,21.4,64,21.4z"/>
</svg>
