<?xml version="1.0" encoding="utf-8"?>
<!-- Generator: Adobe Illustrator 24.0.3, SVG Export Plug-In . SVG Version: 6.00 Build 0)  -->
<svg version="1.1" id="Layer_1" xmlns="http://www.w3.org/2000/svg" xmlns:xlink="http://www.w3.org/1999/xlink" x="0px" y="0px"
	 viewBox="0 0 128 128" style="enable-background:new 0 0 128 128;" xml:space="preserve">
<g id="delete" transform="translate(7.93 -0.001) rotate(45)">
	<path id="Path_22452" d="M129.7-23.9L100.2,5.6l29.5,29.5c4.5,4.3,4.6,11.4,0.3,15.9s-11.4,4.6-15.9,0.3c-0.1-0.1-0.2-0.2-0.4-0.4
		L84.3,21.4L54.8,50.9C50.1,55,43,54.5,39,49.8c-3.7-4.2-3.6-10.5,0-14.7L68.5,5.6L39-23.9c-4.1-4.6-3.8-11.7,0.8-15.9
		c4.3-3.8,10.8-3.8,15,0l29.5,29.5l29.4-29.5c4.4-4.4,11.5-4.4,15.9,0S134.1-28.3,129.7-23.9L129.7-23.9L129.7-23.9z"/>
</g>
</svg>
