<svg xmlns="http://www.w3.org/2000/svg" viewBox="0 0 48 48" width="48" height="48"><path d="M11.3 24c0-2.3.6-4.5 1.8-6.5V9.4H5C-1.7 18-1.7 30 5 38.6h8v-8.1c-1.1-2-1.8-4.2-1.7-6.5z" fill="#fbbd00"/><path d="M24 36.8l-5.6 5.6L24 48c5.3 0 10.4-1.7 14.6-5v-8h-8.1c-2 1.1-4.2 1.8-6.5 1.8z" fill="#0f9d58"/><path d="M13 30.5l-8 8.1c.6.8 1.3 1.6 2 2.4 4.5 4.5 10.6 7 17 7V36.7c-4.5 0-8.7-2.3-11-6.2z" fill="#31aa52"/><path d="M48 24c0-1.5-.1-2.9-.4-4.3l-.2-1.2H24v11.2h11.4c-1.1 2.2-2.8 4-4.9 5.2l8.1 8.1c.8-.6 1.6-1.3 2.4-2.1 4.5-4.4 7-10.5 7-16.9z" fill="#3c79e6"/><path d="M33 15l1 1 8-8-1-1c-4.5-4.5-10.6-7-17-7l-5.6 5.6 5.6 5.6c3.4 0 6.6 1.4 9 3.8z" fill="#cf2d48"/><path d="M24 11.3V0C17.6 0 11.5 2.5 7 7c-.7.8-1.4 1.6-2 2.4l8.1 8.1c2.2-3.9 6.4-6.2 10.9-6.2z" fill="#eb4132"/></svg>