<svg version="1.1" id="Layer_1" xmlns="http://www.w3.org/2000/svg" x="0" y="0" viewBox="0 0 246 78" width="246" height="78" xml:space="preserve"><style>.st0{enable-background:new}.st1{fill:#008026}.st3{fill:#c19e13}.st4{fill:#fff}</style><g class="st0"><path class="st1" d="M97.3 58.4c0-.9-.3-1.7-1-2.2s-1.9-1-3.6-1.6c-1.7-.6-3.1-1.1-4.1-1.6-2.7-1.5-4.1-3.5-4.1-6 0-1.3.4-2.5 1.1-3.5.7-1 1.8-1.8 3.2-2.4 1.4-.6 2.9-.9 4.6-.9 1.7 0 3.3.3 4.6.9 1.3.6 2.4 1.5 3.1 2.6.7 1.1 1.1 2.4 1.1 3.9h-5c0-1.1-.3-2-1-2.6s-1.7-.9-2.9-.9-2.2.3-2.8.8c-.7.5-1 1.2-1 2s.4 1.4 1.2 2c.8.5 1.9 1 3.5 1.5 2.8.8 4.9 1.9 6.2 3.2 1.3 1.3 1.9 2.8 1.9 4.7 0 2.1-.8 3.7-2.4 4.9-1.6 1.2-3.7 1.8-6.4 1.8-1.9 0-3.5-.3-5.1-1-1.5-.7-2.7-1.6-3.5-2.8-.8-1.2-1.2-2.5-1.2-4.1h5c0 2.7 1.6 4 4.8 4 1.2 0 2.1-.2 2.8-.7.7-.4 1-1.1 1-2zM110.9 60.8H123v4h-18.3v-2.9l11.9-17.1h-11.9v-4h18.1v2.8l-11.9 17.2zM139.9 59.8h-8.7l-1.7 5h-5.3l9-24.1h4.6l9 24.1h-5.3l-1.6-5zm-7.3-4h6l-3-9-3 9zM155.6 40.7l6.2 17.5 6.2-17.5h6.5v24.1h-5v-6.6l.5-11.4-6.5 17.9h-3.4l-6.5-17.9.5 11.3v6.6h-5v-24h6.5zM178.8 64.7v-24h8.4c2.9 0 5.1.6 6.6 1.7s2.3 2.8 2.3 4.9c0 1.2-.3 2.2-.9 3.1-.6.9-1.4 1.6-2.5 2 1.2.3 2.2.9 2.9 1.9.7.9 1.1 2.1 1.1 3.4 0 2.3-.7 4.1-2.2 5.3-1.5 1.2-3.6 1.8-6.3 1.8h-9.4zm5-13.9h3.7c2.5 0 3.8-1 3.8-3 0-1.1-.3-1.9-1-2.4-.6-.5-1.6-.7-3-.7h-3.5v6.1zm0 3.5v6.5h4.2c1.2 0 2.1-.3 2.7-.8.7-.6 1-1.3 1-2.3 0-2.2-1.1-3.3-3.4-3.4h-4.5zM214 59.8h-8.7l-1.7 5h-5.3l9-24.1h4.6l9 24.1h-5.3l-1.6-5zm-7.4-4h6l-3-9-3 9z"/></g><g class="st0"><path class="st1" d="M222.4 63.2c0-.5.2-.9.5-1.2.3-.3.7-.5 1.2-.5s.9.2 1.3.5c.3.3.5.7.5 1.2s-.2.9-.5 1.2-.7.5-1.3.5c-.5 0-.9-.2-1.3-.5s-.4-.7-.4-1.2zM239 59.1c0 1.8-.4 3.2-1.2 4.3-.8 1.1-1.9 1.6-3.3 1.6-1.2 0-2.1-.4-2.8-1.2v5.5h-3.1v-16h2.9l.1 1.1c.7-.9 1.7-1.3 2.9-1.3 1.4 0 2.5.5 3.3 1.6.8 1.1 1.2 2.5 1.2 4.4zm-3.1-.3c0-1.1-.2-1.9-.6-2.5-.4-.6-.9-.9-1.7-.9-1 0-1.6.4-2 1.1v4.7c.4.8 1.1 1.1 2 1.1 1.6.2 2.3-1 2.3-3.5zM244.2 64.7h-3.1V48.3h3.1v16.4z"/></g><g class="st0"><path d="M88.8 28.5l.6 3.1.7-2.9L94.5 14H96l4.2 14.6.7 3 .7-3.1 3.6-14.5h1.7l-5.1 19.8h-1.6l-4.5-15.5-.5-2-.5 2-4.6 15.5h-1.6l-5-19.8h1.7l3.6 14.5zM116 24.9l6-10.9h1.9l-7.2 12.4v7.5H115v-7.5L108 14h2l6 10.9zM130.7 28.5l.6 3.1.7-2.9 4.3-14.6h1.5l4.2 14.6.7 3 .7-3.1 3.6-14.5h1.7l-5.1 19.8H142l-4.5-15.5-.5-2-.5 2-4.6 15.5h-1.6L125.4 14h1.7l3.6 14.5zM166.7 25c0 1.8-.3 3.4-.9 4.8-.6 1.4-1.5 2.4-2.7 3.2-1.2.7-2.5 1.1-4.1 1.1-2.3 0-4.2-.8-5.6-2.5-1.4-1.7-2.1-3.9-2.1-6.7v-2c0-1.8.3-3.4 1-4.8.6-1.4 1.5-2.5 2.7-3.2 1.2-.7 2.5-1.1 4-1.1s2.9.4 4 1.1c1.2.7 2.1 1.8 2.7 3.1.6 1.3 1 2.9 1 4.7V25zm-1.6-2.1c0-2.4-.5-4.3-1.6-5.6-1.1-1.4-2.6-2-4.4-2-1.8 0-3.3.7-4.4 2-1.1 1.4-1.6 3.3-1.6 5.7v2c0 2.4.5 4.2 1.6 5.6 1.1 1.4 2.6 2.1 4.4 2.1 1.9 0 3.4-.7 4.4-2 1.1-1.4 1.6-3.2 1.6-5.7v-2.1zM171.4 32.5h12.2v1.4h-14.3v-1.3l11.8-17.1h-11.4V14h13.5v1.2l-11.8 17.3zM193.1 24.9l6.1-10.8h1.9L194 26.4v7.5h-1.7v-7.5L185.1 14h2l6 10.9z"/></g><g id="Group_18189" transform="translate(-286.383 -73.093)"><path id="Path_22487" d="M355.6 128.7V96c0-2.4-1.3-4.7-3.4-5.9l-27.8-16c-2.1-1.2-4.7-1.2-6.8 0l-27.8 16c-2.1 1.2-3.4 3.5-3.4 5.9v32.8c0 2 1.1 3.8 2.8 4.8l29 16.8c1.7 1 3.9 1 5.6 0l29-16.7c1.7-1.1 2.8-3 2.8-5z" fill="#15880c"/><g id="Group_18186" transform="translate(286.383 78.465)"><path id="Path_22488" class="st3" d="M0 17.5v23.2l22.9 13.2 23.5-40.7L23.5 0 3.4 11.6C1.3 12.8 0 15.1 0 17.5z"/><g id="Group_18185"><ellipse id="Ellipse_15761" transform="rotate(-60 34.664 33.558)" class="st4" cx="34.7" cy="33.6" rx="23.5" ry="16.5"/><path id="Path_22489" d="M20.4 25.3C15.5 33.7 15 43 18.3 49.1c16.3-4.5 26-21.1 21.9-37.5-7.1 0-14.9 5.2-19.8 13.7z"/><path id="Path_22490" class="st3" d="M46.4 13.2c-1.6-.9-3.4-1.5-5.3-1.6C45.9 28 36.5 45.3 20 50.1c-.3.1-.7.2-1 .3 1 1.4 2.3 2.6 3.8 3.5 8 4.6 19.7-.9 26.2-12.1s5.3-24.1-2.6-28.6z"/><path id="Path_22491" class="st4" d="M46.4 13.2c-.5-.3-1-.5-1.5-.7.5.2 1 .4 1.5.7L23.5 0l-1.8 1-.8.5 17.7 10.2c-3 .4-5.8 1.4-8.3 3.1L14.1 5.4l-1.5.8 16.3 9.4c-.3.2-.6.4-.8.6L11.7 6.8 4 11.2l18.6 10.7c-.8 1-1.5 2.1-2.1 3.2L1 13.9c-.6 1-1 2.2-1 3.4l18.9 10.9c-3.2 7.1-3.5 14.4-1.2 19.7L0 37.7v3l22.9 13.2c1.9 1.1 4 1.6 6.2 1.6 7 0 14.9-5.2 19.8-13.7 6.6-11.2 5.4-24.1-2.5-28.6zM45 39.5c-4.6 7.9-11.2 11.4-15.9 11.4-1.4 0-2.7-.3-3.9-1-5.6-3.2-6-13.5-.9-22.4 4.6-7.9 11.2-11.4 15.9-11.4v-3.5 3.5c1.4 0 2.7.3 3.9 1 5.6 3.3 6 13.5.9 22.4z"/></g></g></g></svg>