<?xml version="1.0" encoding="utf-8"?>
<!-- Generator: Adobe Illustrator 24.0.3, SVG Export Plug-In . SVG Version: 6.00 Build 0)  -->
<svg version="1.1" id="Layer_1" xmlns="http://www.w3.org/2000/svg" xmlns:xlink="http://www.w3.org/1999/xlink" x="0px" y="0px"
	 viewBox="0 0 246 78" style="enable-background:new 0 0 246 78;" xml:space="preserve">
<style type="text/css">
	.st0{enable-background:new    ;}
	.st1{fill:#FFFFFF;}
	.st2{fill:#15880C;}
	.st3{fill:#C19E13;}
</style>
<g class="st0">
	<path class="st1" d="M97.3,58.4c0-0.9-0.3-1.7-1-2.2s-1.9-1-3.6-1.6s-3.1-1.1-4.1-1.6c-2.7-1.5-4.1-3.5-4.1-6
		c0-1.3,0.4-2.5,1.1-3.5s1.8-1.8,3.2-2.4c1.4-0.6,2.9-0.9,4.6-0.9s3.3,0.3,4.6,0.9c1.3,0.6,2.4,1.5,3.1,2.6s1.1,2.4,1.1,3.9h-5
		c0-1.1-0.3-2-1-2.6s-1.7-0.9-2.9-0.9s-2.2,0.3-2.8,0.8c-0.7,0.5-1,1.2-1,2s0.4,1.4,1.2,2c0.8,0.5,1.9,1,3.5,1.5
		c2.8,0.8,4.9,1.9,6.2,3.2c1.3,1.3,1.9,2.8,1.9,4.7c0,2.1-0.8,3.7-2.4,4.9c-1.6,1.2-3.7,1.8-6.4,1.8c-1.9,0-3.5-0.3-5.1-1
		c-1.5-0.7-2.7-1.6-3.5-2.8s-1.2-2.5-1.2-4.1h5c0,2.7,1.6,4,4.8,4c1.2,0,2.1-0.2,2.8-0.7C97,60,97.3,59.3,97.3,58.4z M110.9,60.8
		H123v4h-18.3v-2.9l11.9-17.1h-11.9v-4h18.1v2.8C122.8,43.6,110.9,60.8,110.9,60.8z M139.9,59.8h-8.7l-1.7,5h-5.3l9-24.1h4.6l9,24.1
		h-5.3C141.5,64.8,139.9,59.8,139.9,59.8z M132.6,55.8h6l-3-9L132.6,55.8z M155.6,40.7l6.2,17.5l6.2-17.5h6.5v24.1h-5v-6.6l0.5-11.4
		l-6.5,17.9h-3.4l-6.5-17.9l0.5,11.3v6.6h-5v-24C149.1,40.7,155.6,40.7,155.6,40.7z M178.8,64.7v-24h8.4c2.9,0,5.1,0.6,6.6,1.7
		s2.3,2.8,2.3,4.9c0,1.2-0.3,2.2-0.9,3.1c-0.6,0.9-1.4,1.6-2.5,2c1.2,0.3,2.2,0.9,2.9,1.9c0.7,0.9,1.1,2.1,1.1,3.4
		c0,2.3-0.7,4.1-2.2,5.3c-1.5,1.2-3.6,1.8-6.3,1.8h-9.4L178.8,64.7z M183.8,50.8h3.7c2.5,0,3.8-1,3.8-3c0-1.1-0.3-1.9-1-2.4
		c-0.6-0.5-1.6-0.7-3-0.7h-3.5C183.8,44.7,183.8,50.8,183.8,50.8z M183.8,54.3v6.5h4.2c1.2,0,2.1-0.3,2.7-0.8c0.7-0.6,1-1.3,1-2.3
		c0-2.2-1.1-3.3-3.4-3.4H183.8z M214,59.8h-8.7l-1.7,5h-5.3l9-24.1h4.6l9,24.1h-5.3C215.6,64.8,214,59.8,214,59.8z M206.6,55.8h6
		l-3-9L206.6,55.8z"/>
</g>
<g class="st0">
	<path class="st1" d="M222.4,63.2c0-0.5,0.2-0.9,0.5-1.2s0.7-0.5,1.2-0.5s0.9,0.2,1.3,0.5c0.3,0.3,0.5,0.7,0.5,1.2s-0.2,0.9-0.5,1.2
		s-0.7,0.5-1.3,0.5c-0.5,0-0.9-0.2-1.3-0.5S222.4,63.7,222.4,63.2z M239,59.1c0,1.8-0.4,3.2-1.2,4.3c-0.8,1.1-1.9,1.6-3.3,1.6
		c-1.2,0-2.1-0.4-2.8-1.2v5.5h-3.1v-16h2.9l0.1,1.1c0.7-0.9,1.7-1.3,2.9-1.3c1.4,0,2.5,0.5,3.3,1.6S239,57.2,239,59.1L239,59.1z
		 M235.9,58.8c0-1.1-0.2-1.9-0.6-2.5c-0.4-0.6-0.9-0.9-1.7-0.9c-1,0-1.6,0.4-2,1.1v4.7c0.4,0.8,1.1,1.1,2,1.1
		C235.2,62.5,235.9,61.3,235.9,58.8z M244.2,64.7h-3.1V48.3h3.1V64.7z"/>
</g>
<g class="st0">
	<path class="st1" d="M88.8,28.5l0.6,3.1l0.7-2.9L94.5,14H96l4.2,14.6l0.7,3l0.7-3.1l3.6-14.5h1.7l-5.1,19.8h-1.6l-4.5-15.5l-0.5-2
		l-0.5,2l-4.6,15.5h-1.6l-5-19.8h1.7L88.8,28.5L88.8,28.5z M116,24.9l6-10.9h1.9l-7.2,12.4v7.5H115v-7.5L108,14h2L116,24.9z
		 M130.7,28.5l0.6,3.1l0.7-2.9l4.3-14.6h1.5l4.2,14.6l0.7,3l0.7-3.1l3.6-14.5h1.7l-5.1,19.8H142l-4.5-15.5l-0.5-2l-0.5,2l-4.6,15.5
		h-1.6L125.4,14h1.7L130.7,28.5z M166.7,25c0,1.8-0.3,3.4-0.9,4.8c-0.6,1.4-1.5,2.4-2.7,3.2c-1.2,0.7-2.5,1.1-4.1,1.1
		c-2.3,0-4.2-0.8-5.6-2.5c-1.4-1.7-2.1-3.9-2.1-6.7v-2c0-1.8,0.3-3.4,1-4.8c0.6-1.4,1.5-2.5,2.7-3.2s2.5-1.1,4-1.1s2.9,0.4,4,1.1
		c1.2,0.7,2.1,1.8,2.7,3.1c0.6,1.3,1,2.9,1,4.7L166.7,25L166.7,25z M165.1,22.9c0-2.4-0.5-4.3-1.6-5.6c-1.1-1.4-2.6-2-4.4-2
		c-1.8,0-3.3,0.7-4.4,2c-1.1,1.4-1.6,3.3-1.6,5.7v2c0,2.4,0.5,4.2,1.6,5.6s2.6,2.1,4.4,2.1c1.9,0,3.4-0.7,4.4-2
		c1.1-1.4,1.6-3.2,1.6-5.7V22.9z M171.4,32.5h12.2v1.4h-14.3v-1.3l11.8-17.1h-11.4V14h13.5v1.2L171.4,32.5z M193.1,24.9l6.1-10.8
		h1.9L194,26.4v7.5h-1.7v-7.5L185.1,14h2L193.1,24.9z"/>
</g>
<g id="Group_18189" transform="translate(-286.383 -73.093)">
	<path id="Path_22487" class="st2" d="M355.6,128.7V96c0-2.4-1.3-4.7-3.4-5.9l-27.8-16c-2.1-1.2-4.7-1.2-6.8,0l-27.8,16
		c-2.1,1.2-3.4,3.5-3.4,5.9v32.8c0,2,1.1,3.8,2.8,4.8l29,16.8c1.7,1,3.9,1,5.6,0l29-16.7C354.5,132.6,355.6,130.7,355.6,128.7
		L355.6,128.7z"/>
	<g id="Group_18186" transform="translate(286.383 78.465)">
		<path id="Path_22488" class="st3" d="M0,17.5v23.2l22.9,13.2l23.5-40.7L23.5,0L3.4,11.6C1.3,12.8,0,15.1,0,17.5z"/>
		<g id="Group_18185">
			
				<ellipse id="Ellipse_15761" transform="matrix(0.5 -0.866 0.866 0.5 -11.6941 46.8409)" class="st1" cx="34.7" cy="33.5" rx="23.5" ry="16.5"/>
			<path id="Path_22489" d="M20.4,25.3C15.5,33.7,15,43,18.3,49.1c16.3-4.5,26-21.1,21.9-37.5C33.1,11.6,25.3,16.8,20.4,25.3z"/>
			<path id="Path_22490" class="st3" d="M46.4,13.2c-1.6-0.9-3.4-1.5-5.3-1.6C45.9,28,36.5,45.3,20,50.1c-0.3,0.1-0.7,0.2-1,0.3
				c1,1.4,2.3,2.6,3.8,3.5c8,4.6,19.7-0.9,26.2-12.1S54.3,17.7,46.4,13.2z"/>
			<path id="Path_22491" class="st1" d="M46.4,13.2c-0.5-0.3-1-0.5-1.5-0.7C45.4,12.7,45.9,12.9,46.4,13.2L23.5,0l-1.8,1l-0.8,0.5
				l17.7,10.2c-3,0.4-5.8,1.4-8.3,3.1L14.1,5.4l-1.5,0.8l16.3,9.4c-0.3,0.2-0.6,0.4-0.8,0.6L11.7,6.8L4,11.2l18.6,10.7
				c-0.8,1-1.5,2.1-2.1,3.2L1,13.9c-0.6,1-1,2.2-1,3.4l18.9,10.9c-3.2,7.1-3.5,14.4-1.2,19.7L0,37.7v3l22.9,13.2
				c1.9,1.1,4,1.6,6.2,1.6c7,0,14.9-5.2,19.8-13.7C55.5,30.6,54.3,17.7,46.4,13.2z M45,39.5c-4.6,7.9-11.2,11.4-15.9,11.4
				c-1.4,0-2.7-0.3-3.9-1c-5.6-3.2-6-13.5-0.9-22.4c4.6-7.9,11.2-11.4,15.9-11.4v-3.5v3.5c1.4,0,2.7,0.3,3.9,1
				C49.7,20.4,50.1,30.6,45,39.5z"/>
		</g>
	</g>
</g>
</svg>
