<?xml version="1.0" encoding="utf-8"?>
<!-- Generator: Adobe Illustrator 24.0.3, SVG Export Plug-In . SVG Version: 6.00 Build 0)  -->
<svg version="1.1" id="Layer_1" xmlns="http://www.w3.org/2000/svg" xmlns:xlink="http://www.w3.org/1999/xlink" x="0px" y="0px"
	 viewBox="0 0 128 128" style="enable-background:new 0 0 128 128;" xml:space="preserve">
<path d="M64,0C28.7,0,0,28.7,0,64c0,35.3,28.7,64,64,64s64-28.7,64-64C128,28.7,99.3,0,64,0z M90.1,70.5L90.1,70.5l-19.8,0v19.9
	c0.1,3-2.3,5.4-5.2,5.5s-5.4-2.3-5.5-5.2c0-0.1,0-0.2,0-0.2V70.4H39.8c-2.9-0.2-5.2-2.8-4.9-5.7c0.2-2.7,2.3-4.8,5-4.9h19.9V39.9
	c0.2-2.9,2.7-5.2,5.6-5.1c2.7,0.1,4.9,2.3,5.1,5.1v19.9l19.8,0c3,0,5.3,2.4,5.3,5.3C95.5,68.1,93.1,70.5,90.1,70.5z"/>
</svg>
