<?xml version="1.0" encoding="utf-8"?>
<!-- Generator: Adobe Illustrator 24.0.3, SVG Export Plug-In . SVG Version: 6.00 Build 0)  -->
<svg version="1.1" id="Layer_1" xmlns="http://www.w3.org/2000/svg" xmlns:xlink="http://www.w3.org/1999/xlink" x="0px" y="0px"
	 viewBox="0 0 128 128" style="enable-background:new 0 0 128 128;" xml:space="preserve">
<g id="Group_18191" transform="translate(6.413 3.393)">
	<g id="Group_18190">
		<path id="Path_22508" d="M118,14.1c-1.9-1.9-4.9-1.9-6.8,0L53.3,71.8L32.4,49.1c-1.8-2-4.9-2.1-6.8-0.3c-2,1.8-2.1,4.9-0.3,6.8
			l24.3,26.4c0.9,1,2.1,1.5,3.4,1.6h0.1c1.3,0,2.5-0.5,3.4-1.4L118,20.9C119.8,19.1,119.9,16,118,14.1C118,14.1,118,14.1,118,14.1z"
			/>
	</g>
</g>
<g id="Group_18193">
	<g id="Group_18192">
		<path id="Path_22509" d="M123.2,59.2c-2.7,0-4.8,2.1-4.8,4.8c0,30-24.3,54.4-54.3,54.4C34,118.4,9.7,94.1,9.7,64
			C9.6,34,34,9.7,64,9.7c2.7,0,4.8-2.2,4.8-4.8C68.8,2.2,66.7,0,64,0c0,0,0,0,0,0C28.7,0,0,28.7,0,64s28.7,64,64,64s64-28.7,64-64
			C128,61.4,125.9,59.2,123.2,59.2z"/>
	</g>
</g>
</svg>
