<?xml version="1.0" encoding="utf-8"?>
<!-- Generator: Adobe Illustrator 24.0.3, SVG Export Plug-In . SVG Version: 6.00 Build 0)  -->
<svg version="1.1" id="Layer_1" xmlns="http://www.w3.org/2000/svg" xmlns:xlink="http://www.w3.org/1999/xlink" x="0px" y="0px"
	 viewBox="0 0 128 128" style="enable-background:new 0 0 128 128;" xml:space="preserve">
<path id="customer-service" d="M127.2,59.7l-6.4-4.5C119.9,23.9,93.8-0.8,62.4,0C32.3,0.9,8.1,25.1,7.2,55.2l-6.4,4.5
	C0.3,60.1,0,60.7,0,61.3v20c0,0.6,0.3,1.2,0.8,1.5L8,88c0.3,0.2,0.7,0.4,1.1,0.4h7.2c1,0,1.9-0.8,1.9-1.9l0,0V56.3c0,0,0-0.1,0-0.1
	c0-25.3,20.5-45.9,45.9-45.9s45.9,20.5,45.9,45.9c0,0.1,0,0.1,0,0.2v30c0,1,0.8,1.9,1.9,1.9c0,0,0,0,0,0h1.7v2.2
	c0,5.9-4.3,10.9-10.2,11.8c2.4-5.4,3.6-11.3,3.6-17.3V57.5c0-23.7-19.2-42.9-42.9-42.9c-23.7,0-42.9,19.2-42.9,42.9c0,0,0,0,0,0
	v27.6c0,23.7,19.2,42.9,42.9,42.9c15.4,0,29.6-8.3,37.3-21.7h0.1c8.7,0,15.8-7.1,15.8-15.8v-2.2h1.7c0.4,0,0.8-0.1,1.1-0.4l7.2-5.1
	c0.5-0.4,0.8-0.9,0.8-1.5v-20C128,60.7,127.7,60.1,127.2,59.7L127.2,59.7z M64,18.3c21.6,0,39.1,17.5,39.1,39.1v10.2
	c-15.2,1.6-29.9-5.9-37.5-19.1c-0.5-0.9-1.7-1.2-2.6-0.7c-0.3,0.2-0.5,0.4-0.7,0.7C54.8,61.8,40,69.3,24.8,67.6V57.5
	C24.9,35.9,42.4,18.4,64,18.3z M64,124.3c-21.6,0-39.1-17.5-39.1-39.1V71.4c1.3,0.1,2.6,0.2,3.9,0.2c14.1,0,27.3-7,35.2-18.7
	c7.9,11.7,21.1,18.6,35.2,18.7c1.3,0,2.6-0.1,3.9-0.2v13.7c0,6-1.4,12-4.1,17.4H81.4c-0.8-2.5-3.2-4.2-5.8-4.2h-7.5
	c-3.4,0-6.1,2.7-6.1,6.1s2.7,6.1,6.1,6.1h7.5c2.7,0,5-1.7,5.8-4.3h15.5C89.7,117.5,77.3,124.2,64,124.3L64,124.3z M77.9,104.5
	c-0.1,1.3-1.1,2.3-2.4,2.3h-7.5c-1.3,0-2.4-1.1-2.4-2.4c0-1.3,1.1-2.4,2.4-2.4h7.5c1.3,0,2.3,1,2.4,2.3c0,0,0,0.1,0,0.1
	S77.9,104.5,77.9,104.5L77.9,104.5z M14.4,84.6H9.7l-5.9-4.2V62.3l5.9-4.2h4.7L14.4,84.6z M64,7.6C37.8,7.7,16.1,28.2,14.5,54.3H11
	C12.4,25.1,37.2,2.5,66.5,3.8C93.8,5.1,115.7,27,117,54.3h-3.4C111.9,28.2,90.2,7.7,64,7.6L64,7.6z M124.2,80.4l-5.9,4.2h-4.7V58.1
	h4.7l5.9,4.2V80.4z"/>
</svg>
