<?xml version="1.0" encoding="utf-8"?>
<!-- Generator: Adobe Illustrator 24.0.3, SVG Export Plug-In . SVG Version: 6.00 Build 0)  -->
<svg version="1.1" id="Layer_1" xmlns="http://www.w3.org/2000/svg" xmlns:xlink="http://www.w3.org/1999/xlink" x="0px" y="0px"
	 viewBox="0 0 128 128" style="enable-background:new 0 0 128 128;" xml:space="preserve">
<path id="Path_22615" d="M125.9,59.8l-16.3-20.9c-0.1-0.1-0.1-0.1-0.2-0.2c-1.6-1.5-3.7-2.4-5.8-2.5H89.6c-1.2,0-2.1,1-2.1,2.1v34.1
	h-5.8c-3.9,5.3-10.1,8.4-16.6,8.5H18.1C11.6,81,5.5,77.9,1.6,72.6c-0.9,0.2-1.6,1.1-1.6,2v14.9c0,1.2,1,2.1,2.1,2.1h10.7
	c0,5.9,4.8,10.7,10.7,10.7s10.7-4.8,10.7-10.7h4.3c0,5.9,4.8,10.7,10.7,10.7s10.7-4.8,10.7-10.7H96c0,5.9,4.8,10.7,10.7,10.7
	c5.9,0,10.7-4.8,10.7-10.7h4.3c2.8,0.3,5.5-1.5,6.2-4.3c0.2-0.7,0.2-1.4,0.2-2.1V65C128,63.1,127.3,61.2,125.9,59.8z M23.5,98.1
	c-3.5,0-6.4-2.9-6.4-6.4c0-3.5,2.9-6.4,6.4-6.4s6.4,2.9,6.4,6.4C29.9,95.3,27,98.1,23.5,98.1L23.5,98.1z M49.1,98.1
	c-3.5,0-6.4-2.9-6.4-6.4c0-3.5,2.9-6.4,6.4-6.4s6.4,2.9,6.4,6.4C55.5,95.3,52.6,98.1,49.1,98.1L49.1,98.1z M106.7,98.1
	c-3.5,0-6.4-2.9-6.4-6.4c0-3.5,2.9-6.4,6.4-6.4s6.4,2.9,6.4,6.4C113.1,95.3,110.2,98.1,106.7,98.1L106.7,98.1z M104.5,59.7
	c-1.2,0-2.1-0.9-2.1-2.1c0,0,0,0,0,0V40.5h1.3c1,0.1,1.9,0.5,2.7,1.1l14.1,18.1H104.5z"/>
<path id="Path_22616" d="M21.3,34.1h-3.2C8.1,34.1,0,43.7,0,55.5c0,1.4,0.1,2.9,0.4,4.3c0.1,0.4,0.1,0.8,0.2,1.2
	c0.1,0.4,0.2,0.7,0.3,1.1c0.1,0.5,0.3,1.1,0.5,1.6c0.1,0.4,0.3,0.9,0.5,1.2c0.1,0.3,0.2,0.5,0.3,0.8c0.2,0.4,0.4,0.9,0.7,1.3
	c0.1,0.2,0.2,0.4,0.3,0.5c0.7,1.2,1.6,2.4,2.5,3.5L5.8,71c0.5,0.5,1,1,1.5,1.5c3,2.7,6.8,4.2,10.8,4.3h46.9c4,0,7.9-1.6,10.8-4.3
	c0.5-0.5,1.1-1,1.5-1.5l0.1-0.1c0.5-0.5,1-1.1,1.4-1.7c0,0,0-0.1,0.1-0.1c0.4-0.5,0.7-1.1,1-1.6c0.1-0.2,0.2-0.3,0.3-0.5
	c0.3-0.6,0.6-1.1,0.9-1.8c0.1-0.2,0.2-0.4,0.3-0.6c0.2-0.4,0.3-0.8,0.5-1.2c0.1-0.3,0.2-0.6,0.3-0.9c0.7-2.3,1-4.7,1-7.1
	c0-11.8-8.1-21.3-18.1-21.3c0.4,0,0.7,0,1.1,0v-4.3c1.2,0,2.1-1,2.1-2.1s-1-2.1-2.1-2.1H46.9c-1.2,0-2.1,1-2.1,2.1s1,2.1,2.1,2.1
	v4.3H36.3"/>
</svg>
